<?xml version="1.0" standalone="no"?><!DOCTYPE svg PUBLIC "-//W3C//DTD SVG 1.1//EN" "http://www.w3.org/Graphics/SVG/1.1/DTD/svg11.dtd"><svg t="1775579525938" class="icon" viewBox="0 0 1024 1024" version="1.1" xmlns="http://www.w3.org/2000/svg" p-id="5070" xmlns:xlink="http://www.w3.org/1999/xlink" width="200" height="200"><path d="M855.467 501.333c-17.067 0-32 14.934-32 32v198.4c0 70.4-59.734 130.134-130.134 130.134H356.267c-83.2 0-151.467-66.134-151.467-149.334V358.4c0-64 53.333-117.333 117.333-117.333h168.534c17.066 0 32-14.934 32-32s-14.934-32-32-32H322.133c-100.266 0-181.333 81.066-181.333 181.333v352c0 117.333 96 213.333 215.467 213.333h337.066c106.667 0 194.134-87.466 194.134-194.133V533.333c0-17.066-14.934-32-32-32zM680.533 256H761.6L458.667 569.6A30.933 30.933 0 0 0 480 622.933c8.533 0 17.067-4.266 23.467-10.666l305.066-313.6v89.6c0 17.066 14.934 32 32 32s32-14.934 32-32v-147.2c0-27.734-23.466-51.2-51.2-51.2h-140.8c-17.066 0-32 14.933-32 32s14.934 34.133 32 34.133z" p-id="5071"></path></svg>